<mxfile host="app.diagrams.net" modified="2023-07-11T18:57:24.093Z" agent="Mozilla/5.0 (Macintosh; Intel Mac OS X 10_15_7) AppleWebKit/605.1.15 (KHTML, like Gecko) Version/16.5.1 Safari/605.1.15" etag="Su4x_maDjNhC5PlIrFWu" version="21.6.2" type="github" pages="2">
  <diagram id="R2lEEEUBdFMjLlhIrx00" name="Навигация бота">
    <mxGraphModel dx="2213" dy="924" grid="1" gridSize="10" guides="1" tooltips="1" connect="1" arrows="1" fold="1" page="1" pageScale="1" pageWidth="850" pageHeight="1100" math="0" shadow="0" extFonts="Permanent Marker^https://fonts.googleapis.com/css?family=Permanent+Marker">
      <root>
        <mxCell id="0" />
        <mxCell id="1" parent="0" />
        <mxCell id="2If4LVVL7XvgSvMpB3Qt-27" value="" style="strokeWidth=1;shadow=0;dashed=0;align=center;html=1;shape=mxgraph.mockup.rrect;rSize=10;strokeColor=#666666;" vertex="1" parent="1">
          <mxGeometry x="50" y="160" width="150" height="150" as="geometry" />
        </mxCell>
        <mxCell id="2If4LVVL7XvgSvMpB3Qt-28" value="Find stops" style="strokeColor=inherit;fillColor=inherit;gradientColor=inherit;strokeWidth=1;shadow=0;dashed=0;align=center;html=1;shape=mxgraph.mockup.rrect;rSize=0;fontSize=17;fontColor=#666666;fontStyle=1;resizeWidth=1;whiteSpace=wrap;" vertex="1" parent="2If4LVVL7XvgSvMpB3Qt-27">
          <mxGeometry width="128.57142857142856" height="50" relative="1" as="geometry">
            <mxPoint x="11" y="50" as="offset" />
          </mxGeometry>
        </mxCell>
        <mxCell id="2If4LVVL7XvgSvMpB3Qt-29" value="Settings" style="strokeColor=inherit;fillColor=inherit;gradientColor=inherit;strokeWidth=1;shadow=0;dashed=0;align=center;html=1;shape=mxgraph.mockup.rrect;rSize=0;fontSize=17;fontColor=#666666;fontStyle=1;resizeWidth=1;whiteSpace=wrap;" vertex="1" parent="2If4LVVL7XvgSvMpB3Qt-27">
          <mxGeometry width="128.57142857142856" height="50" relative="1" as="geometry">
            <mxPoint x="11" y="100" as="offset" />
          </mxGeometry>
        </mxCell>
        <mxCell id="2If4LVVL7XvgSvMpB3Qt-31" value="My stops" style="strokeWidth=1;shadow=0;dashed=0;align=center;html=1;shape=mxgraph.mockup.topButton;rSize=10;fontSize=17;fontColor=#ffffff;fontStyle=1;fillColor=#008cff;strokeColor=#008cff;resizeWidth=1;whiteSpace=wrap;" vertex="1" parent="2If4LVVL7XvgSvMpB3Qt-27">
          <mxGeometry width="130" height="50" relative="1" as="geometry">
            <mxPoint x="10" as="offset" />
          </mxGeometry>
        </mxCell>
        <mxCell id="2If4LVVL7XvgSvMpB3Qt-39" value="" style="strokeWidth=1;shadow=0;dashed=0;align=center;html=1;shape=mxgraph.mockup.buttons.multiButton;fillColor=#008cff;strokeColor=#666666;mainText=;subText=;" vertex="1" parent="2If4LVVL7XvgSvMpB3Qt-27">
          <mxGeometry y="-50" width="150" height="50" as="geometry" />
        </mxCell>
        <mxCell id="2If4LVVL7XvgSvMpB3Qt-40" value="Main menu" style="strokeWidth=1;shadow=0;dashed=0;align=center;html=1;shape=mxgraph.mockup.anchor;fontSize=16;fontColor=#ffffff;fontStyle=1;whiteSpace=wrap;" vertex="1" parent="2If4LVVL7XvgSvMpB3Qt-39">
          <mxGeometry y="8" width="150" height="20" as="geometry" />
        </mxCell>
        <mxCell id="2If4LVVL7XvgSvMpB3Qt-41" value="Sub Text" style="strokeWidth=1;shadow=0;dashed=0;align=center;html=1;shape=mxgraph.mockup.anchor;fontSize=12;fontColor=#ffffff;fontStyle=1;whiteSpace=wrap;" vertex="1" parent="2If4LVVL7XvgSvMpB3Qt-39">
          <mxGeometry y="30" width="150" height="10" as="geometry" />
        </mxCell>
        <mxCell id="2If4LVVL7XvgSvMpB3Qt-42" value="" style="strokeWidth=1;shadow=0;dashed=0;align=center;html=1;shape=mxgraph.mockup.rrect;rSize=10;strokeColor=#666666;" vertex="1" parent="1">
          <mxGeometry x="280" y="210" width="150" height="150" as="geometry" />
        </mxCell>
        <mxCell id="2If4LVVL7XvgSvMpB3Qt-43" value="Add stop" style="strokeColor=inherit;fillColor=inherit;gradientColor=inherit;strokeWidth=1;shadow=0;dashed=0;align=center;html=1;shape=mxgraph.mockup.rrect;rSize=0;fontSize=17;fontColor=#666666;fontStyle=1;resizeWidth=1;whiteSpace=wrap;" vertex="1" parent="2If4LVVL7XvgSvMpB3Qt-42">
          <mxGeometry width="128.57142857142856" height="50" relative="1" as="geometry">
            <mxPoint x="11" y="50" as="offset" />
          </mxGeometry>
        </mxCell>
        <mxCell id="2If4LVVL7XvgSvMpB3Qt-44" value="To main menu" style="strokeColor=inherit;fillColor=inherit;gradientColor=inherit;strokeWidth=1;shadow=0;dashed=0;align=center;html=1;shape=mxgraph.mockup.rrect;rSize=0;fontSize=17;fontColor=#666666;fontStyle=1;resizeWidth=1;whiteSpace=wrap;" vertex="1" parent="2If4LVVL7XvgSvMpB3Qt-42">
          <mxGeometry width="128.57142857142856" height="50" relative="1" as="geometry">
            <mxPoint x="11" y="100" as="offset" />
          </mxGeometry>
        </mxCell>
        <mxCell id="2If4LVVL7XvgSvMpB3Qt-45" value="Users stops" style="strokeWidth=1;shadow=0;dashed=0;align=center;html=1;shape=mxgraph.mockup.topButton;rSize=10;fontSize=17;fontColor=#ffffff;fontStyle=1;fillColor=#008cff;strokeColor=#008cff;resizeWidth=1;whiteSpace=wrap;" vertex="1" parent="2If4LVVL7XvgSvMpB3Qt-42">
          <mxGeometry width="130" height="50" relative="1" as="geometry">
            <mxPoint x="10" as="offset" />
          </mxGeometry>
        </mxCell>
        <mxCell id="2If4LVVL7XvgSvMpB3Qt-46" value="" style="strokeWidth=1;shadow=0;dashed=0;align=center;html=1;shape=mxgraph.mockup.buttons.multiButton;fillColor=#008cff;strokeColor=#666666;mainText=;subText=;" vertex="1" parent="2If4LVVL7XvgSvMpB3Qt-42">
          <mxGeometry y="-50" width="150" height="50" as="geometry" />
        </mxCell>
        <mxCell id="2If4LVVL7XvgSvMpB3Qt-47" value="My stops" style="strokeWidth=1;shadow=0;dashed=0;align=center;html=1;shape=mxgraph.mockup.anchor;fontSize=16;fontColor=#ffffff;fontStyle=1;whiteSpace=wrap;" vertex="1" parent="2If4LVVL7XvgSvMpB3Qt-46">
          <mxGeometry y="8" width="150" height="20" as="geometry" />
        </mxCell>
        <mxCell id="2If4LVVL7XvgSvMpB3Qt-48" value="Sub Text" style="strokeWidth=1;shadow=0;dashed=0;align=center;html=1;shape=mxgraph.mockup.anchor;fontSize=12;fontColor=#ffffff;fontStyle=1;whiteSpace=wrap;" vertex="1" parent="2If4LVVL7XvgSvMpB3Qt-46">
          <mxGeometry y="30" width="150" height="10" as="geometry" />
        </mxCell>
        <mxCell id="2If4LVVL7XvgSvMpB3Qt-49" value="" style="edgeStyle=elbowEdgeStyle;elbow=vertical;endArrow=classic;html=1;curved=0;rounded=0;endSize=8;startSize=8;" edge="1" parent="1" source="2If4LVVL7XvgSvMpB3Qt-31" target="2If4LVVL7XvgSvMpB3Qt-46">
          <mxGeometry width="50" height="50" relative="1" as="geometry">
            <mxPoint x="190" y="280" as="sourcePoint" />
            <mxPoint x="240" y="230" as="targetPoint" />
          </mxGeometry>
        </mxCell>
        <mxCell id="2If4LVVL7XvgSvMpB3Qt-52" value="" style="edgeStyle=elbowEdgeStyle;endArrow=classic;html=1;rounded=0;endSize=8;startSize=8;" edge="1" parent="1" source="2If4LVVL7XvgSvMpB3Qt-44" target="2If4LVVL7XvgSvMpB3Qt-39">
          <mxGeometry width="50" height="50" relative="1" as="geometry">
            <mxPoint x="305" y="410" as="sourcePoint" />
            <mxPoint x="140" y="40" as="targetPoint" />
          </mxGeometry>
        </mxCell>
        <mxCell id="2If4LVVL7XvgSvMpB3Qt-53" value="" style="strokeWidth=1;shadow=0;dashed=0;align=center;html=1;shape=mxgraph.mockup.rrect;rSize=10;strokeColor=#666666;" vertex="1" parent="1">
          <mxGeometry x="-150" y="310" width="150" height="110" as="geometry" />
        </mxCell>
        <mxCell id="2If4LVVL7XvgSvMpB3Qt-54" value="Search near" style="strokeColor=inherit;fillColor=inherit;gradientColor=inherit;strokeWidth=1;shadow=0;dashed=0;align=center;html=1;shape=mxgraph.mockup.rrect;rSize=0;fontSize=17;fontColor=#666666;fontStyle=1;resizeWidth=1;whiteSpace=wrap;" vertex="1" parent="2If4LVVL7XvgSvMpB3Qt-53">
          <mxGeometry width="70" height="90" relative="1" as="geometry">
            <mxPoint x="80" as="offset" />
          </mxGeometry>
        </mxCell>
        <mxCell id="2If4LVVL7XvgSvMpB3Qt-57" value="" style="strokeWidth=1;shadow=0;dashed=0;align=center;html=1;shape=mxgraph.mockup.buttons.multiButton;fillColor=#008cff;strokeColor=#666666;mainText=;subText=;" vertex="1" parent="2If4LVVL7XvgSvMpB3Qt-53">
          <mxGeometry y="-36.666666666666664" width="150" height="36.666666666666664" as="geometry" />
        </mxCell>
        <mxCell id="2If4LVVL7XvgSvMpB3Qt-58" value="Find stops" style="strokeWidth=1;shadow=0;dashed=0;align=center;html=1;shape=mxgraph.mockup.anchor;fontSize=16;fontColor=#ffffff;fontStyle=1;whiteSpace=wrap;" vertex="1" parent="2If4LVVL7XvgSvMpB3Qt-57">
          <mxGeometry y="5.866666666666666" width="150" height="14.666666666666666" as="geometry" />
        </mxCell>
        <mxCell id="2If4LVVL7XvgSvMpB3Qt-59" value="Sub Text" style="strokeWidth=1;shadow=0;dashed=0;align=center;html=1;shape=mxgraph.mockup.anchor;fontSize=12;fontColor=#ffffff;fontStyle=1;whiteSpace=wrap;" vertex="1" parent="2If4LVVL7XvgSvMpB3Qt-57">
          <mxGeometry y="22" width="150" height="7.333333333333333" as="geometry" />
        </mxCell>
        <mxCell id="2If4LVVL7XvgSvMpB3Qt-60" value="Open map stops" style="strokeColor=inherit;fillColor=inherit;gradientColor=inherit;strokeWidth=1;shadow=0;dashed=0;align=center;html=1;shape=mxgraph.mockup.rrect;rSize=0;fontSize=17;fontColor=#666666;fontStyle=1;resizeWidth=1;whiteSpace=wrap;" vertex="1" parent="2If4LVVL7XvgSvMpB3Qt-53">
          <mxGeometry width="70" height="90" relative="1" as="geometry">
            <mxPoint as="offset" />
          </mxGeometry>
        </mxCell>
        <mxCell id="2If4LVVL7XvgSvMpB3Qt-61" value="" style="edgeStyle=elbowEdgeStyle;endArrow=classic;html=1;rounded=0;endSize=8;startSize=8;" edge="1" parent="1" source="2If4LVVL7XvgSvMpB3Qt-28" target="2If4LVVL7XvgSvMpB3Qt-57">
          <mxGeometry width="50" height="50" relative="1" as="geometry">
            <mxPoint x="301" y="345" as="sourcePoint" />
            <mxPoint x="210" y="145" as="targetPoint" />
          </mxGeometry>
        </mxCell>
        <mxCell id="2If4LVVL7XvgSvMpB3Qt-65" value="" style="edgeStyle=elbowEdgeStyle;endArrow=classic;html=1;rounded=0;endSize=8;startSize=8;" edge="1" parent="1" source="2If4LVVL7XvgSvMpB3Qt-60" target="2If4LVVL7XvgSvMpB3Qt-66">
          <mxGeometry width="50" height="50" relative="1" as="geometry">
            <mxPoint x="71" y="245" as="sourcePoint" />
            <mxPoint x="-220" y="540" as="targetPoint" />
          </mxGeometry>
        </mxCell>
        <mxCell id="2If4LVVL7XvgSvMpB3Qt-66" value="" style="strokeWidth=1;shadow=0;dashed=0;align=center;html=1;shape=mxgraph.mockup.containers.browserWindow;rSize=0;strokeColor=#666666;strokeColor2=#008cff;strokeColor3=#c4c4c4;mainText=,;recursiveResize=0;" vertex="1" parent="1">
          <mxGeometry x="-530" y="370" width="260" height="380" as="geometry" />
        </mxCell>
        <mxCell id="2If4LVVL7XvgSvMpB3Qt-67" value="Page 1" style="strokeWidth=1;shadow=0;dashed=0;align=center;html=1;shape=mxgraph.mockup.containers.anchor;fontSize=17;fontColor=#666666;align=left;whiteSpace=wrap;" vertex="1" parent="2If4LVVL7XvgSvMpB3Qt-66">
          <mxGeometry x="60" y="12" width="110" height="26" as="geometry" />
        </mxCell>
        <mxCell id="2If4LVVL7XvgSvMpB3Qt-68" value="home_page/bus_stops_info/bus_stops_info_en.html" style="strokeWidth=1;shadow=0;dashed=0;align=center;html=1;shape=mxgraph.mockup.containers.anchor;rSize=0;fontSize=17;fontColor=#666666;align=left;" vertex="1" parent="2If4LVVL7XvgSvMpB3Qt-66">
          <mxGeometry x="130" y="60" width="250" height="26" as="geometry" />
        </mxCell>
      </root>
    </mxGraphModel>
  </diagram>
  <diagram id="OyBYX9urv4pvGDp1NUMF" name="Страница 2">
    <mxGraphModel dx="954" dy="647" grid="1" gridSize="10" guides="1" tooltips="1" connect="1" arrows="1" fold="1" page="1" pageScale="1" pageWidth="827" pageHeight="1169" math="0" shadow="0">
      <root>
        <mxCell id="0" />
        <mxCell id="1" parent="0" />
      </root>
    </mxGraphModel>
  </diagram>
</mxfile>
